<?xml version="1.0" standalone="no"?>
<!DOCTYPE svg PUBLIC "-//W3C//DTD SVG 20010904//EN"
 "http://www.w3.org/TR/2001/REC-SVG-20010904/DTD/svg10.dtd">
<svg version="1.0" xmlns="http://www.w3.org/2000/svg"
 width="528.000000pt" height="528.000000pt" viewBox="0 0 528.000000 528.000000"
 preserveAspectRatio="xMidYMid meet">
<metadata>
Created by potrace 1.11, written by Peter Selinger 2001-2013
</metadata>
<g transform="translate(0.000000,528.000000) scale(0.100000,-0.100000)"
fill="#000000" stroke="none">
<path d="M2320 5175 c-758 -102 -1412 -510 -1835 -1145 -95 -144 -221 -397
-275 -555 -102 -299 -142 -537 -142 -850 -1 -318 42 -566 148 -870 48 -136
178 -398 262 -525 419 -641 1092 -1061 1847 -1156 154 -19 456 -21 600 -5 595
69 1116 320 1535 740 216 216 352 406 489 682 178 356 261 720 261 1136 0 559
-172 1079 -506 1528 -400 539 -986 895 -1659 1007 -159 26 -569 34 -725 13z
m700 -173 c145 -25 332 -73 434 -111 43 -16 80 -31 82 -33 3 -4 -719 -726
-1729 -1727 l-518 -514 53 -52 c43 -42 558 -533 771 -734 l49 -46 54 60 55 59
-86 81 c-47 44 -216 204 -375 355 l-288 275 556 557 557 558 157 -157 158
-158 57 58 58 57 -156 156 -155 155 469 467 c393 391 473 467 494 465 14 -1
80 -34 146 -74 562 -336 964 -874 1116 -1494 55 -226 65 -317 65 -585 0 -206
-3 -266 -22 -375 -87 -517 -312 -955 -677 -1321 -363 -364 -796 -587 -1315
-676 -79 -13 -183 -21 -335 -25 -191 -5 -240 -3 -370 16 -82 12 -204 35 -270
52 -132 33 -327 100 -323 110 2 3 512 498 1135 1100 1116 1078 1132 1094 1114
1114 -10 11 -20 25 -22 31 -2 7 -152 155 -334 329 -181 175 -370 356 -418 404
l-88 86 -56 -59 -55 -59 59 -57 c32 -32 202 -196 378 -366 176 -169 320 -313
320 -319 0 -7 -250 -253 -555 -548 l-555 -536 -158 157 -157 157 -57 -58 -58
-57 156 -157 156 -158 -483 -467 -484 -467 -34 14 c-19 8 -81 43 -138 77 -400
242 -746 623 -937 1031 -155 332 -219 606 -228 982 -5 192 -3 239 16 370 118
808 598 1473 1330 1839 248 125 523 201 861 240 94 11 470 -4 580 -22z"/>
</g>
</svg>
